<?xml version="1.0" encoding="utf-8"?>

<!DOCTYPE svg PUBLIC "-//W3C//DTD SVG 1.1//EN" "http://www.w3.org/Graphics/SVG/1.1/DTD/svg11.dtd">
<svg version="1.1" id="Layer_1" xmlns="http://www.w3.org/2000/svg" xmlns:xlink="http://www.w3.org/1999/xlink" x="0px" y="0px"
	 viewBox="0 0 2615.0732 1705.0851" enable-background="new 0 0 2615.0732 1705.0851" xml:space="preserve">
<g>
	<g>
		<path fill="#FFFFFF" d="M2431.7097,1313.2395c-29.49-12.9301-51.3999-33.3-63.6199-63.2001
			c-3.54-8.6899-1.3201-18.6499,5.23-25.37c46.26-47.5599,81.8999-108.71,109.53-180.1c1.4099-3.65,4.8499-5.71,8.3599-5.71
			c2.1201,0,4.27,0.76,6,2.39c86.1899,81.1799,69.23,180.24-40.74,268.65c-4.3599,3.5099-9.75,5.34-15.1799,5.34
			C2438.0398,1315.2395,2434.7798,1314.5895,2431.7097,1313.2395z"/>
		<path fill="#FFFFFF" d="M2402.7798,1351.5195c-41.6201,63.87-117.04,96.9199-194.29,96.9199c-123.49,0-251.66-84.39-254.08-262.14
			c-0.12-8.36,6.6699-15.1899,15.03-15.2999c98.86-1.36,179.0299-20.98,227.9301-71.15c1.2998-1.34,2.9299-1.9401,4.5298-1.9401
			c3.0601,0,6,2.1901,6.3601,5.7201c5.3301,53.38,20.8101,103.5399,96.76,134.52c11.4199,4.6499,20.6599,13.3099,26.77,24.0099
			c3.5901,6.28,7.4299,12.28,11.47,18.0801c13.9199,24.99,34.3201,44.7999,60.95,59.11
			C2405.5698,1343.2695,2405.2397,1347.7495,2402.7798,1351.5195z"/>
		<path fill="#FFFFFF" d="M1992.3597,869.8095c7.29,0,14.61,0.81,21.85,2.46c96.99,22.15,156.1201,68.04,178.1401,137.23
			c6.03,18.98,3.3699,39.58-7.0701,56.2999c-4.9399,2.14-9.48,5.24-13.3701,9.2301c-38.3098,39.3099-104.7,59.0699-202.96,60.4099
			c-2.37,0.03-4.7,0.24-6.97,0.5901l-28.11-1.91c-10.16-3.7101-19.5-9.53-27.29-17.1801
			c-74.2799-72.9299-72.2899-147.84,23.7301-225.2C1948.0598,877.4395,1970.0098,869.8095,1992.3597,869.8095z"/>
		<path d="M1962.8297,1136.0895c0,0-0.37,0.01-1.1599-0.01c0.1-0.02,0.21-0.03,0.3099-0.0499L1962.8297,1136.0895z"/>
		<path fill="#FFFFFF" d="M2244.0999,885.0395c16.8599-0.92,33.53-1.51,49.6299-1.51c85.8301,0,155.4399,16.69,152.8801,88.35
			c1.48,33.14-2.3601,63.57-9.77,90.85c-21.7002,49.08-46.8,89.6899-76.0801,123.09c-12.6001,10.2101-25.3401,17.54-37.27,21.72
			c-1.6599-0.8099-3.3301-1.62-5.04-2.3099c-56.3499-22.99-69.77-54.6901-74.8101-105.14c-0.6699-6.62-2.8298-12.73-6.1299-18.03
			c4.26-31.85,15.8301-65.86,35.8799-97.5099c6.9602-18.63,1.77-33.29-9.3999-33.3c-7.25,0-17.01,6.17-27.6099,21.4399
			l-12.6201,18.72c-27.77-77.85-95.5601-129.58-201.63-153.8c-8.46-1.93-17.12-2.98-25.79-3.24c-0.73-0.8-1.4199-1.64-2.0599-2.52
			c-119.6-163.29-188.1801-351.06-131.22-429.11c23.3999-32.07,50.01-48.14,76.58-48.14c37.5699,0,75.08,32.13,103.34,96.62
			c36.5,63.95,67.72,170.19,93.49,273.2c0.6699,2.65,2.8701,3.96,5.0801,3.96c2.25,0,4.5-1.36,5.1399-4.05
			c49.8201-209.66,111.4402-363.72,209.25-363.72c14.78,0,30.3801,3.51,46.9001,10.88c247.7998,106.67-165.3801,501-165.3801,501
			c-3.99,5.17-0.23,12.56,6.1702,12.56C2243.7898,885.0495,2243.9397,885.0495,2244.0999,885.0395z"/>
		<path d="M2521.5796,1015.3695c-8.25-7.78-19.04-12.0601-30.3701-12.0601h-0.0098c-3.1602,0-6.2402,0.3501-9.2402,0.97
			c0.5903-10.77,0.6704-21.6499,0.2202-32.6199c0.8101-31.52-8.7798-57.8601-28.5103-78.3101
			c-34.96-36.2401-95.0098-43.92-142.9597-45.16c24.74-26.71,56-62.34,86.7097-102.52
			c91.3901-119.6,130.9502-218.04,117.5503-292.58c-6.3901-35.58-28.5601-84.25-97.8501-114.16
			c-20.71-9.21-41.29-13.88-61.1799-13.88c-32.47,0-62.8601,12.15-90.3201,36.11c-23.1599,20.2-44.02,48.4-63.7998,86.2
			c-21.5103,41.11-41.3201,92.67-60.6902,158.38c-22.5-75.71-44.1099-131.08-66.3398-170.5099
			c-44.8701-101.03-103.8701-116.1801-135.1501-116.1801c-13.5698,0-30.4399,2.72-48.6399,11.92
			c-18.2,9.2-37.74,24.89-56.6599,50.81c-71.6702,98.21,8.1699,297.96,121.5398,457.59c-17.3398,4.91-33.6899,13.26-47.8699,24.68
			c-56.74,45.71-86.74,94.1001-89.1802,143.8401c-2.2598,46.0299,18.8801,91.25,62.8501,134.4199
			c11.5,11.29,25.46,19.9399,40.6602,25.41c-2.3201,5.91-3.5801,12.34-3.4902,19.0699c1.26,92.0601,33.53,169.3701,93.3201,223.5801
			c52.3701,47.47,122.0901,73.6199,196.3201,73.6199c94.1799,0,177.9502-42.2699,224.0801-113.0599
			c3.9897-6.13,6.48-13.0499,7.48-20.2c0.4199,0.0099,0.8301,0.0699,1.2397,0.0699c13.5801,0,26.8799-4.6899,37.46-13.1899
			c68.6802-55.22,106.25-116.95,108.6602-178.52C2589.4297,1107.5294,2566.6694,1057.8295,2521.5796,1015.3695z M1863.0596,402.7394
			c23.4001-32.07,50.0103-48.14,76.5801-48.14c37.5701,0,75.0801,32.13,103.3401,96.62c36.5,63.95,67.72,170.19,93.49,273.2
			c0.6699,2.65,2.8701,3.96,5.0801,3.96c2.25,0,4.5-1.36,5.1399-4.05c49.8201-209.66,111.4399-363.72,209.25-363.72
			c14.78,0,30.3801,3.51,46.9001,10.88c247.7998,106.67-165.3801,501-165.3801,501c-3.99,5.17-0.23,12.56,6.1699,12.56
			c0.1602,0,0.3101,0,0.47-0.0099c16.8601-0.92,33.53-1.51,49.6301-1.51c85.8298,0,155.4397,16.69,152.8801,88.35
			c1.48,33.1399-2.3604,63.5699-9.77,90.85c-21.7002,49.08-46.8003,89.6899-76.0801,123.09
			c-12.6001,10.21-25.3401,17.54-37.27,21.72c-1.6602-0.8099-3.3301-1.62-5.04-2.3099
			c-56.3501-22.9901-69.77-54.6901-74.8101-105.14c-0.6699-6.62-2.8301-12.73-6.1299-18.03c4.26-31.85,15.8301-65.86,35.8799-97.51
			c6.96-18.63,1.77-33.29-9.3999-33.3c-7.25,0-17.01,6.17-27.6101,21.4401l-12.6199,18.7201
			c-27.77-77.8501-95.5601-129.5801-201.6301-153.8001c-8.46-1.93-17.1199-2.98-25.7898-3.24c-0.7302-0.8-1.4202-1.64-2.0601-2.52
			C1874.6797,668.5594,1806.0996,480.7895,1863.0596,402.7394z M1906.5796,1116.9395c-74.2798-72.9301-72.2898-147.84,23.73-225.2
			c17.75-14.3,39.7002-21.93,62.05-21.93c7.29,0,14.6101,0.81,21.8501,2.46c96.99,22.15,156.1199,68.04,178.1399,137.2299
			c6.03,18.9801,3.3701,39.5801-7.0698,56.3c-4.9399,2.14-9.48,5.24-13.3701,9.23c-38.3101,39.3101-104.7,59.0701-202.96,60.41
			c-2.3701,0.03-4.7,0.24-6.97,0.59l0.8499,0.0601c0,0-0.3699,0.01-1.1599-0.01c0.1001-0.02,0.21-0.03,0.3101-0.05l-28.1101-1.9099
			C1923.7097,1130.4095,1914.3696,1124.5895,1906.5796,1116.9395z M2402.7798,1351.5194c-41.6201,63.8701-117.04,96.92-194.29,96.92
			c-123.49,0-251.6602-84.39-254.0801-262.14c-0.1199-8.36,6.6699-15.1899,15.03-15.3c98.8601-1.3599,179.03-20.98,227.9299-71.1499
			c1.3-1.3401,2.9302-1.9399,4.53-1.9399c3.0601,0,6,2.1899,6.3601,5.72c5.3301,53.3799,20.8101,103.5399,96.76,134.52
			c11.4199,4.6499,20.6599,13.3099,26.77,24.01c3.5898,6.2799,7.4299,12.2799,11.47,18.0798
			c13.9199,24.9901,34.3198,44.8,60.9497,59.1101C2405.5698,1343.2694,2405.2397,1347.7494,2402.7798,1351.5194z
			 M2456.4697,1309.8995c-4.3599,3.51-9.75,5.3398-15.1802,5.3398c-3.25,0-6.5098-0.6499-9.5801-2
			c-29.4897-12.9299-51.3999-33.2999-63.6196-63.2c-3.54-8.6899-1.3201-18.6499,5.23-25.37
			c46.2598-47.5599,81.8999-108.71,109.5298-180.1c1.4102-3.65,4.8501-5.71,8.3599-5.71c2.1201,0,4.2705,0.76,6,2.3899
			C2583.3999,1122.4294,2566.4399,1221.4894,2456.4697,1309.8995z"/>
	</g>
	<path d="M1645.8198,134.9595c59.61,72.69,88.97,180.23,69.8999,272.9c-32.48-148.04-122.14-284.77-281.23-310.91
		c-64.35-10.58-129.12-7.54-187.04,25.36c-64.47,40.06-111.0099,102.47-142.61,170.8c2.55-170.97,159.37-297.19,325.3501-271.93
		C1513.6698,33.8895,1591.2798,68.4495,1645.8198,134.9595z"/>
	<path fill="#FF0000" d="M1545.7397,1058.9895c32.78,184.65,15.16,323.7-52.59,413.98c-64.22,85.59-173.37,132-333.66,141.92
		c-12.34,0.75-24.95,1.13-37.49,1.13c-0.03,0-0.03,0-0.03,0c-185.6299,0-397.18-87.4301-580.3799-239.8601
		c-80.87-67.2599-143.67-136.3999-187.43-198.3899c39.78,25.95,84.74,46.22,135.26,61.0199c117.98,34.62,244.65,33.91,361.43,33.55
		c19.0699-0.0599,37.8799-0.13,56.3,0c2.91,0,5.85,0,8.76,0c0.04,0,0.04,0,0.04,0
		C1085.9298,1272.3395,1330.6097,1249.0995,1545.7397,1058.9895z"/>
	<path d="M504.4598,134.9495c67.96,62,95.86,167.91,76.49,257.02c-17.16-77.56-50.16-163.48-118.32-210.06
		c-40.06-27.38-96.33-35.92-139-34.08c-161.57,6.98-247.83,153.57-294.31,291.54c-18.33-178.07,106.69-361.75,293.43-365.69
		C388.3698,72.2995,455.1398,89.9495,504.4598,134.9495z"/>
	<path fill="none" d="M915.9498,1272.3395c0,0,0,0-0.04,0c-2.91,0-5.85,0-8.76,0c-18.42-0.13-37.23-0.0601-56.3,0
		c-116.78,0.36-243.45,1.0699-361.43-33.55c-50.52-14.8-95.48-35.0701-135.26-61.02c43.76,61.99,106.56,131.13,187.43,198.39
		c183.2,152.4301,394.75,239.86,580.3801,239.86c0,0,0,0,0.03,0c12.5399,0,25.1499-0.3799,37.49-1.1299
		c160.2899-9.9202,269.4399-56.3301,333.6599-141.9202c67.75-90.2799,85.37-229.3298,52.5901-413.9799
		C1330.6097,1249.0995,1085.9298,1272.3395,915.9498,1272.3395z"/>
	<path d="M1602.5298,981.0195l-14.41-63.96l-45.74,47c-207.09,212.5801-456.6799,237.1799-626.43,237.1799c0,0,0,0-0.04,0
		c-2.78,0-5.59,0-8.37,0c-18.62-0.0999-37.62-0.0699-56.92,0c-11.96,0.03-24.05,0.0901-36.2,0.0901
		c-180.4803,0-355.2906-5.1196-474.3465-116.6172c-52.25-49.75-107.0004-118.783-132.9217-167.0368l2.1081,95.674
		c2.39,108.92,117.65,276.71,286.85,417.47c89.54,74.5,189.19,136.8201,288.25,180.26c115.07,50.49,228.65,76.05,337.61,76.05h0.03
		c13.99,0,28.0898-0.42,41.8599-1.26c179.8401-11.1201,309.77-68.3901,386.1801-170.2101
		C1639.5398,1396.3994,1656.6998,1221.5294,1602.5298,981.0195z M1493.1498,1472.9694c-64.22,85.5901-173.37,132-333.6599,141.9202
		c-12.3401,0.75-24.9501,1.1299-37.49,1.1299c-0.03,0-0.03,0-0.03,0c-185.6301,0-397.1801-87.4299-580.3801-239.86
		c-80.87-67.26-143.67-136.4-187.43-198.39c39.78,25.95,84.74,46.22,135.26,61.02c117.98,34.62,244.65,33.91,361.43,33.55
		c19.07-0.0601,37.88-0.13,56.3,0c2.91,0,5.85,0,8.76,0c0.04,0,0.04,0,0.04,0c169.98,0,414.66-23.24,629.7901-213.35
		C1578.5198,1243.6395,1560.8998,1382.6895,1493.1498,1472.9694z"/>
</g>
</svg>
