<?xml version="1.0" encoding="utf-8"?>
<svg version="1.1" id="Layer_1" xmlns="http://www.w3.org/2000/svg" xmlns:xlink="http://www.w3.org/1999/xlink" x="0px" y="0px"
	 viewBox="0 0 1498 1717.4487" enable-background="new 0 0 1498 1717.4487" xml:space="preserve">
<g>
	<path d="M51.2208,583.7853C81.559,480.6897,171.6692,422.8384,270.7483,395.6826
		c112.632-42.7266,218.931-113.143,209.6936-249.2359c31.416,113.8403-36.6711,199.4356-135.3534,250.5347
		C234.7117,451.8817,116.9481,463.4228,51.2208,583.7853z"/>
	<path d="M1393.5654,496.063c-63.6017-116.4685-174.976-130.4622-283.194-181.4801
		c-103.5884-48.9614-178.584-137.9327-146.0272-255.8585c-9.2375,136.0937,97.0615,206.5085,209.6935,249.2359
		C1273.1169,335.1161,1363.2272,392.9675,1393.5654,496.063z"/>
	<path d="M158.6622,668.6186c90.3369-107.8674,187.3846-194.761,294.5102-250.157c0.4195-0.2169,0.8803-0.3619,1.3482-0.4266
		c66.4574-9.1838,123.4505,0.3648,173.1056,24.4359c3.5305,1.7115,2.5886,6.936-1.3127,7.3525
		c-153.4037,16.3779-307.5424,97.5114-462.1978,224.251C160.4803,677.0535,155.6445,672.2219,158.6622,668.6186z"/>
	<path d="M946.2643,416.3323c64.7816-9.9608,127.8018-12.6051,186.5677,2.4159c0.3806,0.0973,0.7509,0.2457,1.0941,0.437
		c102.0764,56.9037,177.1514,134.449,221.6292,235.3831c1.948,4.4205-4.141,8.0322-7.0516,4.1769
		c-105.3853-139.5933-296.8276-196.8653-403.0634-234.4601C941.3913,422.8523,942.0192,416.985,946.2643,416.3323z"/>
	<path d="M1424.5645,853.8309c-24.6458-31.5931-67.106-39.6668-67.106-39.6668s-1.4841,26.6167,9.7931,53.3461
		C1002.6334,1008.2773,487.7674,1056.379,245.18,902.7639v0.0004c26.9363-29.9258,40.2752-57.9625,40.2752-57.9625
		s-57.4192,9.1004-108.1815,47.1193c-50.7631,38.0184-75.6474,90.5581-75.6474,90.5581s50.7467-8.0573,99.0038-40.611
		l-0.0149,0.0126c27.4595,222.204,131.8322,420.069,303.165,596.744c173.9371,119.199,354.0054,162.2871,544.8976,71.0293
		c209.6096-116.8572,326.0183-343.6587,357.2592-697.6467c20.6044,12.7245,40.7709,16.5654,40.7709,16.5654
		S1449.2102,885.4241,1424.5645,853.8309z"/>
	<path fill="#FF0000" d="M774.1836,1435.5515c-1.6211,3.2559,2.4166,6.3525,5.169,3.975
		c112.5262-97.2036,233.0525-117.5914,363.1856-45.7511c35.7744,21.7521,29.3829,50.7854-8.3713,85.2354
		c-182.4846,133.0177-589.3231,51.7501-613.3904-29.6802c-14.4596-75.342,127.4293-129.0408,232.1143-111.1105
		C804.565,1347.0709,800.8434,1382.0063,774.1836,1435.5515z"/>
</g>
</svg>
