<?xml version="1.0" encoding="utf-8"?>
<svg version="1.1" id="Layer_1" xmlns="http://www.w3.org/2000/svg" xmlns:xlink="http://www.w3.org/1999/xlink" x="0px" y="0px"
	 viewBox="-472.5683 -506.8315 1595.5684 1691.3802" enable-background="new -472.5683 -506.8315 1595.5684 1691.3802"
	 xml:space="preserve">
<g>
	<path d="M692.5273-369.8235c30.8287,16.0833,58.6677,37.6265,82.9569,62.4329c18.9418,19.4212,37.0634,39.8918,52.0811,62.5253
		c9.1025,16.2528,17.8483,35.4347,13.7325,54.4336c-1.1361,7.1496-9.3741,5.5081-14.5498,5.4658
		c-15.773-11.9093-28.4561-27.1995-42.4846-40.9884C720.58-289.921,647.8632-347.182,563.7891-381.6502
		c-7.3236-3.3417-14.8079-6.257-22.4-8.9461c-17.9927-6.3307-36.2781-11.8896-54.9678-15.6948
		c-12.67-2.724-25.8032-4.0162-37.7233-9.4659c6.6008-4.1219,14.122-7.2143,22.0495-6.3673
		c39.401,3.2567,78.6593,8.5062,117.5127,15.8194C624.1501-397.8921,659.9738-387.4958,692.5273-369.8235z"/>
	<path d="M738.7068-140.9751c-87.3584-51.3286-196.4818-65.2082-290.4222-21.3419
		C354.7909-118.6593,311.37-20.0221,302.1697,77.9642c-9.6696,102.9849,17.7036,210.7221,75.2014,300.4873
		C454.95,479.3065,524.6732,524.175,635.48,561.7112c101.2821,34.3097,200.0329,18.7568,275.8083-61.6215
		C1007.0889,398.4698,1057.6248,46.4094,738.7068-140.9751z M855.7603,489.9248c-67.096,45.3709-147.1689,56.5074-222.3049,29.5369
		c-87.1311-31.2762-167.446-92.026-222.6254-166.1166c-95.9966-124.074-115.9127-350.8515,7.585-465.0385
		c63.9792-59.1557,164.9274-59.0574,243.1865-33.1082c86.8737,28.8056,160.472,93.968,208.2684,171.0726
		C950.4088,156.1953,1009.2586,387.2893,855.7603,489.9248C818.39,515.1948,896.1329,462.9299,855.7603,489.9248z"/>
	<path d="M14.8904-459.8593c8.5715-2.5823,17.5244-0.7962,26.0261,1.2583l-2.282,2.391
		c-15.5184,9.0898-33.2531,13.3782-49.4315,21.1935c-95.5242,44.0297-171.2563,121.9774-229.6763,207.966
		c-12.3384,16.852-22.5247,35.1439-34.7011,52.0535c-4.9891,6.2091-15.4958,15.1096-22.0101,5.7428
		c-6.069-10.1573-5.5553-22.6915-4.2384-34.0461c2.1612-19.1463,11.1701-36.4609,19.3657-53.6176
		c13.2903-20.4546,24.3215-42.4328,40.209-61.1342c22.3627-30.7863,52.0803-55.1364,83.5263-76.1355
		c4.1529-2.1366,8.2368-4.3615,12.2686-6.6962C-95.4978-428.0636-40.2756-444.8364,14.8904-459.8593z"/>
	<path d="M1074.2325,421.2906c1.804,2.5477,3.6506,5.1288,5.1895,7.8834c2.3308,33.1765-3.9534,67.0042-17.6062,97.2826
		c-18.6143,39.2339-56.0954,65.1763-94.5477,82.7367c-15.8076,7.2081-31.9263,13.9318-48.746,18.4175
		c-0.4819-0.9283-1.4458-2.7853-1.9491-3.7304c46.3706-26.7239,91.7278-58.8619,120.9344-104.7219
		C1056.9276,489.7986,1067.7468,455.6851,1074.2325,421.2906z"/>
	<path d="M763.8469,974.6843c35.4611-99.4919-33.8978-196.9557-103.6351-263.9624c-8.508,8.7953,24.403,42.1503,29.9871,51.4896
		c14.8776,24.8826,26.1848,51.7675,35.7402,79.0791c18.7674,53.6417,38.3575,107.4548-7.6922,153.3036
		c51.6428-76.2444,2.8571-168.5544-46.5974-233.2814c-61.6573-80.6984-144.0304-144.8293-229.7856-198.1079
		c-72.389-44.9743-160.413-80.3897-245.8284-52.2881C103.4326,538.0143,43.4963,630.275,26.3159,720.6567
		C9.3684,809.8137,8.2355,905.3087,49.2466,988.2438c40.2362,81.3682,116.0753,138.4836,206.615,149.3264
		c44.2309,5.2969,84.2109-7.1674,127.8216-11.554c47.4988-4.7777,94.611-14.1567,140.7186-26.4943
		C607.4977,1077.287,717.1136,1057.3956,763.8469,974.6843C766.9434,965.9964,745.8231,1006.5839,763.8469,974.6843z"/>
	<path fill="#FF0000" d="M462.8864,870.8347c-12.4052,15.8779-35.8303,25.5151-37.7273,48.068
		c22.0666-8.9878,40.8904-25.0583,63.4864-33.7542c25.6822-9.8835,53.492-13.4141,80.8917-12.8934
		c48.2753,0.9175,132.2029,23.8572,98.5645,88.257c-28.7255,54.9941-92.704,76.4033-147.8887,93.1533
		c-58.2689,17.686-122.1819,34.0375-183.2632,35.7131c-49.044,8.7758-119.291,10.1115-166.7645-6.033
		c-57.1622-19.4392-41.563-88.2808-14.0427-126.6141c34.2077-47.6483,91.7675-71.4522,145.8035-88.5604
		c25.1-8.646,55.4877-10.7876,81.8151-10.0527C406.3001,858.7474,445.3655,855.1998,462.8864,870.8347
		C450.4189,886.7924,455.1224,863.9064,462.8864,870.8347z"/>
	<path d="M-179.4719,589.7692c17.4198,2.2958,35.192,1.624,52.3601,5.6547c-15.0585,5.8963-31.3954,6.5853-47.2913,8.3436
		c-35.6237,1.7984-72.4269-0.0151-105.8019-13.8104c-20.7112-8.2819-37.7486-23.0763-54.7017-37.1838
		c-15.736-19.0208-35.0687-37.3676-40.7598-62.2693c1.0763,0.5649,3.2552,1.7497,4.3529,2.3315
		c19.8901,21.7834,41.6332,42.2547,67.2099,57.2013C-266.5532,573.2342-223.015,584.794-179.4719,589.7692z"/>
	<path d="M535.8134-118.6854c-32.343-25.2692-79.0464-19.5346-104.3153,12.8081c-25.269,32.3428-19.5346,79.0462,12.8084,104.3153
		c32.3425,25.2688,79.0459,19.5342,104.3148-12.8086C573.8902-46.7132,568.1559-93.4166,535.8134-118.6854z M476.5214-57.7791
		c-13.3488,2.0866-26.3003-9.8491-28.9278-26.659c-2.6271-16.8094,6.0642-32.128,19.4131-34.2146
		c13.3488-2.0866,26.3004,9.8489,28.9279,26.6589C498.5621-75.1839,489.8707-59.8653,476.5214-57.7791z"/>
	<path d="M-35.9713-112.3835c-35.4977-27.7338-86.7564-21.4399-114.4899,14.0573c-27.7336,35.4974-21.44,86.7561,14.0577,114.49
		C-100.9063,43.8972-49.6476,37.6033-21.914,2.1059C5.8195-33.3914-0.4741-84.6501-35.9713-112.3835z M-101.0464-45.5366
		c-14.6508,2.2902-28.8655-10.8097-31.7493-29.2592c-2.8834-18.4489,6.6557-35.2616,21.3066-37.5518
		s28.8656,10.8096,31.7494,29.2591S-86.3951-47.8263-101.0464-45.5366z"/>
	<path d="M129.2874-120.075C-1.0376-221.896-209.4592-172.896-336.2351-10.6302s-123.8988,376.3505,6.4262,478.1716
		c130.3255,101.8215,338.7471,52.8214,465.523-109.4444S259.6129-18.2535,129.2874-120.075z M-299.9979,426.4424
		c-110.6089-86.4172-108.6167-273.7893,4.4495-418.5075S-1.1577-184.0458,109.4513-97.6286
		c110.6085,86.4168,108.6168,273.7893-4.4495,418.5076C-8.0645,465.5971-189.3894,512.8592-299.9979,426.4424z"/>
</g>
</svg>
