<?xml version="1.0" encoding="utf-8"?>

<!DOCTYPE svg PUBLIC "-//W3C//DTD SVG 1.1//EN" "http://www.w3.org/Graphics/SVG/1.1/DTD/svg11.dtd">
<svg version="1.1" id="Layer_1" xmlns="http://www.w3.org/2000/svg" xmlns:xlink="http://www.w3.org/1999/xlink" x="0px" y="0px"
	 viewBox="0 0 1468.6533 1693.0164" enable-background="new 0 0 1468.6533 1693.0164" xml:space="preserve">
<g>
	<g id="XMLID_1_">
		<g>
			<path fill="#C0CCD3" d="M606.534,494.5603c16.6358,196.4854-75.1511,397.5647-206.2751,574.7828
				c-89.9137-44.823-182.5033-76.1545-279.4861-85.4982c-88.4196-241.9998-100.0379-438.619,0-564.9263
				c64.8261-81.8633,162.634-112.8604,253.0383-114.8451C489.7711,301.5314,596.7443,379.0016,606.534,494.5603z"/>
		</g>
		<g>
			<g>
				<path fill="#0D00FC" d="M404.3378,1086.3271l-10.0481-5.0088c-96.5129-48.1127-186.4011-75.6393-274.7998-84.1542
					l-8.3908-0.8079l-2.8942-7.9183c-46.0112-125.9297-70.0599-237.0378-71.482-330.2383
					c-1.5375-100.7181,23.2125-184.0187,73.5617-247.589c80.0318-101.0633,199.2759-118.5091,263.2316-119.9138
					c61.6277-1.3437,121.0799,18.514,166.9017,55.5377c46.3661,37.4614,74.5809,89.738,79.4481,147.1953
					c8.0162,94.6727-8.3255,195.7894-48.57,300.545c-35.3643,92.0573-89.2916,187.3811-160.2814,283.3256L404.3378,1086.3271z
					 M130.4897,971.395c85.8725,9.3882,172.9579,35.9391,265.6228,80.9922c145.2071-199.1061,211.5104-386.3587,197.0894-556.699
					c-8.6108-101.6436-100.5461-178.2956-213.8493-178.2956c-1.7444,0-3.4996,0.0196-5.2484,0.0577
					c-59.2584,1.3012-169.6064,17.2923-242.8415,109.7742c-46.4184,58.6072-69.2237,136.1804-67.7842,230.5677
					C64.8266,746.0625,87.3683,851.5433,130.4897,971.395z"/>
			</g>
		</g>
	</g>
	
		<ellipse transform="matrix(0.9296 0.3686 -0.3686 0.9296 297.3059 -72.7725)" cx="339.1291" cy="741.7886" rx="186.133" ry="256.2188"/>
	<ellipse fill="#FFFFFF" cx="389.6664" cy="648.3301" rx="68.015" ry="61.0463"/>
	<path fill="#0D00FC" d="M212.1953,669.4221c-26.6142,53.1542-27.665,111.9779,3.9265,178.0413
		c11.8167,24.7109,31.5577,45.0795,56.4423,56.5259c17.8864,8.2274,37.1338,11.8933,57.8213,10.7329
		c57.1255-5.4752,99.0007-31.6229,126.7385-76.9351c-32.336,75.7536-95.3759,113.6784-165.5148,115.8701
		c-17.5435,0.5482-34.9954-3.7115-49.9053-12.9728C165.8929,893.5945,146.6293,748.8787,212.1953,669.4221z"/>
	<path d="M869.5811,868.2659c109.6454-11.4542,225.5695-5.5956,332.4026,22.0892c48.3046,12.5178,104.4832,29.9333,147.0314,56.7736
		c22.4639,14.1707,95.3782,67.1832,81.1597,100.8615c-8.4287,19.9646-28.8444,12.7517-40.0657,0.9915
		c-17.4019-19.1992-37.7736-35.7807-59.0023-50.5314c-43.4479-29.4626-82.3978-52.6007-133.0038-69.3688
		c-62.8695-20.8316-127.741-34.2224-193.2003-43.7811c-26.94-3.8443-54.0208-6.9047-81.1411-9.1528
		c-14.8506-1.2335-29.7214-2.343-44.6072-3.0539C879.2671,873.0991,861.1263,869.2005,869.5811,868.2659z"/>
	<path d="M110.3587,1203.8792C419.0214,1427.35,771.8715,1476.433,1164.406,1368.8993
		c-135.901,162.2146-300.0453,252.9208-491.4676,274.5612c-83.1605,9.4014-167.4686-2.8647-243.4522-37.9437
		C264.5988,1529.3938,170.207,1383.6854,110.3587,1203.8792z"/>
	<g opacity="0.65">
		<path fill="#FF0604" d="M551.9009,1569.1851c-35.0741-22.3778-62.9137-47.9446-83.8135-76.5701
			c-0.9749-1.3353-2.0903-2.548-3.256-3.7205c-15.7401-15.8323-18.3014-43.3883-5.4517-62.816
			c13.3256-20.1473,38.178-23.9199,55.5093-8.4341l57.8281,51.6814c7.5338,6.7329,17.5422,10.0045,27.5981,9.0212l110.1249-10.7677
			c21.7736-2.121,40.9321,16.6722,42.7636,41.9961c1.7661,24.4196-13.2105,45.9847-33.8162,49.4047
			c-1.53,0.2539-3.037,0.5679-4.5048,1.0686c-37.4207,12.7649-87.6826,16.0861-144.1985,14.8079
			C564.0273,1574.7059,557.5144,1572.7665,551.9009,1569.1851z"/>
	</g>
	<path d="M254.9609,189.2323C314.245,135.1167,385.3291,84.4044,461.8984,58.4739c39.5964-13.4095,81.3372-17.3757,120.999-2.3358
		c10.684,4.8051,26.2693,11.1214,33.124,21.2261c9.6879,14.2812-2.292,32.646-17.0901,36.9252
		c-16.5624,5.5871-29.8958-8.5709-45.0525-14.0948c-38.9248-13.0037-83.8735-2.231-121.0717,11.4922
		c-40.5537,14.6989-78.4821,36.7098-114.3175,60.4757c-15.3298,10.1581-30.3002,20.8951-44.7242,32.3064
		C261.496,214.2928,241.1749,201.7819,254.9609,189.2323z"/>
	<path d="M995.105,63.0655c72.3499,21.9578,141.5251,58.3756,197.4022,109.6093c27.2911,24.866,53.4622,52.9835,71.2079,85.6052
		c5.6545,10.4637,18.6327,29.5312,14.4185,41.8482c-4.3287,12.4934-21.0244,17.5385-32.7817,13.998
		c-13.7838-4.0359-18.7673-29.7215-23.4109-41.4578c-5.9767-14.3546-13.7312-28.0045-21.5748-41.3898
		c-17.9839-27.3888-40.0795-50.647-66.0028-70.6866c-31.4117-25.2962-69.639-45.0279-107.5623-58.5281
		c-11.8766-4.2279-27.2452-5.3464-38.3724-10.7874C972.3926,83.4352,974.5456,56.8987,995.105,63.0655z"/>
</g>
</svg>
