<?xml version="1.0" encoding="utf-8"?>

<!DOCTYPE svg PUBLIC "-//W3C//DTD SVG 1.1//EN" "http://www.w3.org/Graphics/SVG/1.1/DTD/svg11.dtd">
<svg version="1.1" id="Layer_1" xmlns="http://www.w3.org/2000/svg" xmlns:xlink="http://www.w3.org/1999/xlink" x="0px" y="0px"
	 viewBox="0 0 1324.6272 1714.7509" enable-background="new 0 0 1324.6272 1714.7509" xml:space="preserve">
<g>
	<circle cx="662.3137" cy="1039.3838" r="617.9917"/>
	<path fill="#FF0000" d="M608.145,1482.7201c-1.4639,1.6056,0.652,3.9307,2.4097,2.6534
		c146.2028-106.2384,251.3315-148.4608,267.9847-52.7872c21.7332,152.2762-104.9118,206.1713-291.8691,179.8313
		c-156.9862-22.1174-217.0399-108.5675-127.0237-197.6718c75.0981-57.1855,135.6343-66.4758,182.0555-18.158
		c13.0513,13.5846,12.9302,35.1461,0.2379,49.0668L608.145,1482.7201z"/>
	<path fill="#FFFFFF" d="M705.9752,453.14c74.5861,3.7811,147.8793,37.9158,193.9727,83.8578
		c12.3746,65.9088,6.8984,132.4218-10.6293,199.3433c-1.9871,7.5869-9.3842,10.7617-17.2224,11.0308
		C764.004,751.0828,675.6,713.783,675.1587,708.9794c-5.7986-63.1154,7.7446-174.1146,15.6336-243.0125
		C691.6647,458.3478,698.3161,452.7518,705.9752,453.14z"/>
	<path d="M488.4213,227.4492c16.4991-24.3838,52.3397-44.2337,111.5698-43.9294c46.5515,0.2392,79.5474,24.772,106.6797,54.5243
		c4.2217,4.6294,2.6831,12.3216-3.2215,14.4169c-5.0026,1.7752-11.4011,2.0496-18.8604,1.1834
		c-2.8796-0.3344-5.5745-1.5532-7.7772-3.438c-20.2068-17.2902-46.8207-23.1381-79.6752-25.2968
		c-28.5402-1.8753-63.1523,1.1646-101.9552,12.1363C489.5146,238.6482,485.1211,232.3265,488.4213,227.4492z"/>
	<path d="M471.4767,88.8238c-132.8165-51.1586-266.347-34.7282-398.1808,12.2475c57.4382-9.8934,112.5191-29.206,172.153-30.275
		c57.5836-2.2663,113.2243,5.2326,167.9364,23.2514c-135.6898,20.1569-256.509,78.2372-344.3247,185.0967
		c59.2315-63.7537,128.7657-108.8858,212.1587-135.2154c78.3882-24.7495,159.6158-27.8508,240.9336-31.8492
		C505.2608,104.3278,488.3687,96.5758,471.4767,88.8238z"/>
	<path d="M1203.2281,305.1537c-87.7039-93.4838-200.4659-144.7122-326.5265-163.4387
		c54.7112-18.0194,110.3536-25.5177,167.9364-23.2514c59.6339,1.069,114.7147,20.3825,172.153,30.275
		c-81.6553-29.0959-164.9042-48.5666-252.182-44.783c-70.3058,3.0479-133.5637,26.8293-196.6749,55.7914
		c79.7849,3.9235,160.1388,6.3399,237.0374,30.6191c84.912,26.8092,155.6395,71.4176,216.0549,136.4456
		C1215.0936,319.5924,1209.1609,312.3731,1203.2281,305.1537z"/>
</g>
</svg>
